<svg width="39" height="39" viewBox="0 0 39 39" fill="none" xmlns="http://www.w3.org/2000/svg">
<path fill-rule="evenodd" clip-rule="evenodd" d="M23.0591 0.369559C24.3759 -0.391061 26.0599 0.0601036 26.8201 1.37706L30.9501 8.53079C31.0701 8.73854 31.1598 8.95542 31.2208 9.17637H35.1049C37.0057 9.17637 38.5466 10.7171 38.5466 12.6177C38.5466 14.5182 37.0057 16.0596 35.1049 16.0596H3.44177C1.54094 16.0596 0 14.5182 0 12.6177C0 10.7171 1.54094 9.17637 3.44177 9.17637H7.3256C7.3866 8.95542 7.47639 8.73854 7.59633 8.53079L11.7262 1.37706C12.4867 0.0601036 14.1705 -0.391061 15.4874 0.369559C16.8043 1.13022 17.2555 2.81375 16.4951 4.1307L13.5819 9.17637H24.9646L22.0513 4.1307C21.291 2.81375 21.7421 1.13022 23.0591 0.369559ZM4.02415 38.0863L2.83272 17.436H35.7138L34.5224 38.0863H4.02415ZM20.6499 24.3192C20.6499 23.559 20.0337 22.943 19.2733 22.943C18.5131 22.943 17.8966 23.559 17.8966 24.3192V32.5796C17.8966 33.3398 18.5131 33.9562 19.2733 33.9562C20.0337 33.9562 20.6499 33.3398 20.6499 32.5796V24.3192ZM27.5334 22.943C28.2936 22.943 28.91 23.559 28.91 24.3192V32.5796C28.91 33.3398 28.2936 33.9562 27.5334 33.9562C26.773 33.9562 26.1565 33.3398 26.1565 32.5796V24.3192C26.1565 23.559 26.773 22.943 27.5334 22.943ZM12.39 24.3192C12.39 23.559 11.7736 22.943 11.0134 22.943C10.253 22.943 9.63665 23.559 9.63665 24.3192V32.5796C9.63665 33.3398 10.253 33.9562 11.0134 33.9562C11.7736 33.9562 12.39 33.3398 12.39 32.5796V24.3192Z" fill="#FED136"/>
</svg>
