<svg width="41" height="34" viewBox="0 0 41 34" fill="none" xmlns="http://www.w3.org/2000/svg">
<path fill-rule="evenodd" clip-rule="evenodd" d="M33.634 0H6.72679C4.49784 0 2.69073 1.80686 2.69073 4.03581V21.5256C2.69073 21.9973 2.77168 22.4502 2.92045 22.871H2.69073V25.5617H6.72679V4.03581H33.634V25.5617H37.6702V22.871H37.4404C37.5892 22.4502 37.6702 21.9973 37.6702 21.5256V4.03581C37.6702 1.80686 35.863 0 33.634 0ZM2.69073 28.2519H37.6702C39.1561 28.2519 40.3609 29.4571 40.3609 30.9432C40.3609 32.4291 37.8108 33.6338 36.3248 33.6338H4.03611C2.55003 33.6338 0 32.4291 0 30.9432C0 29.4571 1.20477 28.2519 2.69073 28.2519ZM24.2166 30.9432H16.1444C15.4013 30.9432 14.7991 31.2443 14.7991 31.6156C14.7991 31.987 15.4013 32.2883 16.1444 32.2883H24.2166C24.9596 32.2883 25.562 31.987 25.562 31.6156C25.562 31.2443 24.9596 30.9432 24.2166 30.9432ZM11.147 15.7839L13.0413 13.8807C13.5642 13.3556 14.4123 13.3556 14.9353 13.8807L17.4182 16.375L25.4206 8.33699C25.9436 7.81125 26.7918 7.81125 27.3148 8.33699L29.209 10.2391C29.732 10.7645 29.732 11.6167 29.209 12.142L18.791 22.6063C18.3431 23.0562 17.6569 23.1208 17.1405 22.8002C16.7031 22.9046 16.2236 22.7854 15.8824 22.4427L11.147 17.6864C10.624 17.1611 10.624 16.3096 11.147 15.7839Z" fill="#FED136"/>
</svg>
