<svg width="37" height="37" viewBox="0 0 37 37" fill="none" xmlns="http://www.w3.org/2000/svg">
<path d="M13.5667 15.4167V1.85C13.5667 0.801546 12.7651 0 11.7167 0H5.55001C4.50156 0 3.70001 0.801546 3.70001 1.85V15.4167C3.70001 16.4651 4.50156 17.2667 5.55001 17.2667H11.7167C12.7651 17.2667 13.5667 16.4651 13.5667 15.4167ZM12.3333 13.5667H4.93335V3.7H12.3333V13.5667ZM5.55001 1.23333H11.7167C12.0867 1.23333 12.3333 1.47994 12.3333 1.85V2.46667H4.93335V1.85C4.93335 1.47994 5.17995 1.23333 5.55001 1.23333ZM4.93335 15.4167V14.8H12.3333V15.4167C12.3333 15.7867 12.0867 16.0333 11.7167 16.0333H5.55001C5.17995 16.0333 4.93335 15.7867 4.93335 15.4167Z" fill="#95E1D3"/>
<path d="M11.4701 8.63334L6.78333 4.87161V12.3951L11.4701 8.63334ZM8.01666 7.46173L9.4966 8.63334L8.01666 9.80495V7.46173Z" fill="#95E1D3"/>
<path d="M17.2667 10.4833C17.2667 6.41327 20.5966 3.08333 24.6667 3.08333C26.3932 3.08333 28.1201 3.7 29.4765 4.80988L28.1201 6.16667C25.7151 4.25494 22.2617 4.625 20.35 7.02994C19.5484 8.01667 19.1167 9.25 19.1167 10.4833H20.35C20.35 8.07839 22.2617 6.16667 24.6667 6.16667C25.5917 6.16667 26.5167 6.475 27.2568 7.02994L25.9 8.38673C25.5299 8.14012 25.0984 8.01667 24.6667 8.01667C23.3099 8.01667 22.2 9.12655 22.2 10.4833H23.4333C23.4333 9.80494 23.9883 9.25 24.6667 9.25C24.7901 9.25 24.8515 9.25 24.975 9.31173L24.2349 10.0515L25.0984 10.9151L25.8383 10.175C25.8383 10.2985 25.9 10.3599 25.9 10.4833C25.9 11.1617 25.3451 11.7167 24.6667 11.7167V12.95C26.0234 12.95 27.1333 11.8401 27.1333 10.4833C27.1333 10.0515 27.0099 9.62006 26.7633 9.25L28.1201 7.89321C29.5383 9.80494 29.1682 12.5182 27.2568 13.9367C26.5167 14.4917 25.5917 14.8 24.6667 14.8V16.0333C27.75 16.0333 30.2167 13.5667 30.2167 10.4833C30.2167 9.25 29.7849 8.01667 28.9833 7.02994L30.2784 5.73488C32.9299 8.81821 32.5599 13.5049 29.4151 16.1568C28.1201 17.2667 26.3932 17.8833 24.6667 17.8833V19.1167C29.4151 19.1167 33.3 15.2932 33.3 10.4833C33.3 8.38673 32.5599 6.41327 31.2034 4.80988L32.3133 3.7H35.15V2.46667H32.6833V0H31.45V2.83673L30.3401 3.94661C26.7015 0.863273 21.275 1.23333 18.1299 4.80988C16.7734 6.41327 16.0333 8.38673 16.0333 10.4833H17.2667Z" fill="#95E1D3"/>
<path d="M30.2166 22.8167H24.7901L13.0734 18.5H11.7166C10.6682 18.5 9.86664 19.3015 9.86664 20.35V32.6833C9.86664 33.7318 10.6682 34.5333 11.7166 34.5333H13.0734L24.7901 29.6H26.5166V35.15C26.5166 36.1985 27.3182 37 28.3666 37C29.4151 37 30.2166 36.1985 30.2166 35.15V29.6C31.2651 29.6 32.0666 28.7985 32.0666 27.75V24.6667C32.0666 23.6182 31.2651 22.8167 30.2166 22.8167ZM13.5666 19.9799L24.05 23.8651V28.5515L13.5666 32.9917V19.9799ZM11.1 32.6833V20.35C11.1 19.9799 11.3466 19.7333 11.7166 19.7333H12.3333V33.3H11.7166C11.3466 33.3 11.1 33.0534 11.1 32.6833ZM28.9833 35.15C28.9833 35.5201 28.7367 35.7667 28.3666 35.7667C27.9966 35.7667 27.75 35.5201 27.75 35.15V29.6H28.9833V35.15ZM30.8333 27.75C30.8333 28.1201 30.5867 28.3667 30.2166 28.3667H25.2833V24.05H30.2166C30.5867 24.05 30.8333 24.2966 30.8333 24.6667V27.75Z" fill="#95E1D3"/>
<path d="M6.16669 25.2833H8.63335V26.5167H6.16669V25.2833Z" fill="#95E1D3"/>
<path d="M6.35638 20.7953L7.22839 19.923L9.06002 21.7547L8.18772 22.6267L6.35638 20.7953Z" fill="#95E1D3"/>
<path d="M6.35638 31.0047L8.18772 29.173L9.05972 30.0453L7.22839 31.8767L6.35638 31.0047Z" fill="#95E1D3"/>
<path d="M16.0333 11.7784V12.3951C16.0333 16.0951 19.0549 19.1167 22.7549 19.1167H23.4333V11.7167H16.65L16.0333 11.7784ZM22.2 12.95V17.8833C19.6099 17.6367 17.575 15.5401 17.3284 12.95H22.2Z" fill="#95E1D3"/>
<path d="M14.8 1.85001H18.5V3.08334H14.8V1.85001Z" fill="#95E1D3"/>
<path d="M34.5333 12.95V24.6667C34.5333 25.0367 34.2867 25.2833 33.9167 25.2833H33.3V26.5167H33.9167C34.9651 26.5167 35.7667 25.7151 35.7667 24.6667V12.95H34.5333Z" fill="#95E1D3"/>
<path d="M2.46667 24.6667V12.95H1.23334V24.6667C1.23334 25.7151 2.03488 26.5167 3.08334 26.5167H4.93334V25.2833H3.08334C2.71328 25.2833 2.46667 25.0367 2.46667 24.6667Z" fill="#95E1D3"/>
</svg>
