<svg width="26" height="26" viewBox="0 0 26 26" fill="none" xmlns="http://www.w3.org/2000/svg">
<path d="M25.0194 0.981931C24.3649 0.327211 23.5805 0 22.6667 0H3.33579C2.42168 0 1.63754 0.32733 0.982819 0.981931C0.328219 1.63635 0.00100708 2.42062 0.00100708 3.33454V22.6653C0.00100708 23.5791 0.328159 24.3635 0.982819 25.018C1.63754 25.6726 2.42186 26 3.33579 26H22.6665C23.5801 26 24.3647 25.6726 25.0193 25.018C25.674 24.3635 26.0009 23.5791 26.0009 22.6653V3.33454C26.0008 2.42044 25.674 1.63659 25.0194 0.981931ZM9.33658 9.36901C10.3578 8.38175 11.585 7.88788 13.0182 7.88788C14.4625 7.88788 15.6952 8.38175 16.7167 9.36901C17.7381 10.3565 18.2485 11.5499 18.2485 12.9492C18.2485 14.3483 17.7381 15.5418 16.7167 16.5289C15.6952 17.5166 14.4629 18.0104 13.0182 18.0104C11.5851 18.0104 10.3579 17.5162 9.33658 16.5289C8.31517 15.5417 7.80452 14.3483 7.80452 12.9492C7.80452 11.5499 8.31517 10.3565 9.33658 9.36901ZM23.056 21.9715C23.056 22.2647 22.9542 22.5101 22.7512 22.7077C22.5477 22.9051 22.3055 23.0039 22.0231 23.0039H3.92831C3.63496 23.0039 3.38933 22.9051 3.19202 22.7077C2.99441 22.5105 2.89569 22.2647 2.89569 21.9715V11.0024H5.28234C5.05675 11.7134 4.94392 12.4527 4.94392 13.2199C4.94392 15.3871 5.73376 17.2346 7.31361 18.764C8.89364 20.2928 10.7951 21.0576 13.0181 21.0576C14.4852 21.0576 15.8392 20.7076 17.081 20.008C18.3223 19.308 19.3035 18.3575 20.0262 17.1555C20.7485 15.9536 21.1096 14.6417 21.1096 13.22C21.1096 12.4528 20.9964 11.7137 20.7708 11.0025H23.0562V21.9716H23.056V21.9715ZM23.056 6.85525C23.056 7.18253 22.9432 7.45904 22.7172 7.6847C22.4916 7.91052 22.2152 8.02329 21.8878 8.02329H18.9426C18.6155 8.02329 18.3387 7.91047 18.1131 7.6847C17.8875 7.45904 17.7747 7.18253 17.7747 6.85525V4.06254C17.7747 3.74654 17.8875 3.47292 18.1131 3.24152C18.3388 3.01024 18.6155 2.89445 18.9426 2.89445H21.8878C22.2152 2.89445 22.4916 3.01018 22.7172 3.24152C22.9432 3.47292 23.056 3.74654 23.056 4.06254V6.85525Z" fill="#F38181"/>
</svg>
