<svg width="37" height="37" viewBox="0 0 37 37" fill="none" xmlns="http://www.w3.org/2000/svg">
<g clip-path="url(#clip0)">
<path d="M35.15 0.0264587H1.84999C0.828357 0.0264587 0 0.854701 0 1.87645V24.0766C0 25.0983 0.828357 25.9265 1.84999 25.9265H12.3333C14.0355 25.9285 15.4146 27.3078 15.4166 29.0099C15.4136 30.7115 14.035 32.0901 12.3333 32.0931C12.3248 32.0931 12.3179 32.0976 12.3092 32.0982C12.2645 32.1017 12.2202 32.1105 12.1773 32.1247C12.143 32.1313 12.1095 32.1407 12.0768 32.1525C12.0412 32.1719 12.0075 32.1946 11.9762 32.2201C11.9443 32.2408 11.9141 32.2642 11.8863 32.29C11.8634 32.3176 11.8426 32.3471 11.8245 32.3781C11.7981 32.4144 11.7758 32.4535 11.758 32.4946C11.758 32.5021 11.7494 32.5069 11.7469 32.515L10.5136 36.2149C10.4059 36.5382 10.5807 36.8874 10.9038 36.995C10.9671 37.0161 11.0333 37.0267 11.1 37.0265H25.9C26.2405 37.0262 26.5166 36.75 26.5162 36.4094C26.5162 36.3433 26.5056 36.2777 26.4846 36.2149L25.2514 32.515C25.2514 32.5069 25.2428 32.5021 25.2403 32.4946C25.2224 32.4536 25.2001 32.4148 25.1737 32.3787C25.1556 32.3474 25.135 32.3177 25.1119 32.29C25.0841 32.2642 25.0538 32.2408 25.0219 32.2201C24.9906 32.1946 24.9571 32.1719 24.9214 32.1525C24.8887 32.1407 24.855 32.1313 24.8208 32.1247C24.778 32.1107 24.7339 32.1017 24.6889 32.0982C24.6802 32.0982 24.6736 32.0931 24.6649 32.0931C22.9632 32.0901 21.5846 30.7115 21.5816 29.0099C21.5837 27.3078 22.9628 25.9285 24.6649 25.9265H35.15C36.1718 25.9265 37 25.0983 37 24.0766V1.87645C37 0.854701 36.1718 0.0264587 35.15 0.0264587ZM20.35 29.0099C20.3529 31.2173 22.019 33.0681 24.2141 33.3024L25.0441 35.7932H11.956L12.7861 33.3024C14.9811 33.0681 16.6471 31.2176 16.65 29.0099C16.6503 27.8485 16.1808 26.7363 15.3482 25.9265H21.6518C20.8192 26.7363 20.3497 27.8485 20.35 29.0099ZM35.7667 24.0766C35.7667 24.4171 35.4906 24.6932 35.15 24.6932H1.84999C1.50937 24.6932 1.23336 24.4171 1.23336 24.0766V22.2266H35.7667V24.0766ZM1.23336 20.9932V1.87645C1.23336 1.53583 1.50937 1.25982 1.84999 1.25982H35.15C35.4906 1.25982 35.7667 1.53583 35.7667 1.87645V20.9932H1.23336Z" fill="#95E1D3"/>
<path d="M26.0949 9.30862L24.3195 8.71641L25.1563 7.04159C25.2749 6.80426 25.2281 6.51751 25.0404 6.33008L23.2963 4.58608C23.1089 4.3983 22.8222 4.35156 22.5848 4.47016L20.9099 5.30693L20.3178 3.5315C20.234 3.27992 19.9986 3.11013 19.7333 3.10978H17.2666C17.0013 3.1099 16.7659 3.27992 16.6821 3.5315L16.0901 5.30693L14.4152 4.47016C14.1778 4.35156 13.8912 4.3983 13.7036 4.58608L11.9597 6.33008C11.772 6.51763 11.7253 6.80426 11.8437 7.04159L12.6804 8.71641L10.9052 9.30862C10.6534 9.3924 10.4836 9.62774 10.4833 9.89311V12.3598C10.4836 12.6251 10.6534 12.8605 10.9052 12.9443L12.6804 13.5363L11.8437 15.2112C11.7253 15.4487 11.772 15.7354 11.9597 15.9229L13.7036 17.6669C13.8912 17.8546 14.1778 17.9011 14.4152 17.7828L16.0901 16.946L16.6821 18.7213C16.7659 18.973 17.0013 19.1428 17.2666 19.1432H19.7333C19.9986 19.1429 20.234 18.973 20.318 18.7213L20.91 16.946L22.5848 17.7828C22.8222 17.9011 23.1089 17.8546 23.2963 17.6669L25.0404 15.9229C25.2281 15.7352 25.2749 15.4487 25.1563 15.2112L24.3195 13.5363L26.0949 12.9443C26.3465 12.8605 26.5165 12.6251 26.5166 12.3598V9.89311C26.5165 9.62785 26.3465 9.3924 26.0949 9.30862ZM25.2833 11.9152L23.2545 12.5935C22.9314 12.7014 22.7571 13.0508 22.8649 13.3739C22.8742 13.4011 22.8851 13.4279 22.8981 13.4537L23.8545 15.3655L22.739 16.4809L20.8274 15.5246C20.5232 15.371 20.1525 15.4931 19.9989 15.797C19.9853 15.824 19.9736 15.8522 19.964 15.8809L19.2888 17.9098H17.7113L17.033 15.8809C16.9252 15.5578 16.5758 15.3836 16.2527 15.4914C16.2253 15.5007 16.1986 15.5115 16.1728 15.5246L14.2611 16.4809L13.1456 15.3655L14.102 13.4538C14.2542 13.149 14.1303 12.7787 13.8257 12.6266C13.7997 12.6139 13.773 12.6028 13.7456 12.5935L11.7168 11.9152V10.3378L13.7456 9.6594C14.0687 9.55167 14.2431 9.20228 14.1351 8.87919C14.126 8.85173 14.115 8.82509 14.102 8.79926L13.1456 6.88758L14.2611 5.77212L16.1728 6.72843C16.4776 6.88057 16.8478 6.75682 16.9999 6.45196C17.0128 6.42613 17.0239 6.39937 17.033 6.37215L17.7113 4.34326H19.2888L19.9671 6.37215C20.0743 6.69536 20.4232 6.87052 20.7465 6.76337C20.7753 6.7539 20.8033 6.74222 20.8304 6.72843L22.7422 5.77212L23.8577 6.88758L22.9012 8.79926C22.7493 9.10401 22.8729 9.47431 23.1776 9.62633C23.2036 9.63919 23.2302 9.65029 23.2577 9.65952L25.2866 10.3378L25.2833 11.9152Z" fill="#95E1D3"/>
<path d="M18.4999 7.4265C16.4566 7.4265 14.8 9.08298 14.8 11.1265C14.8 13.1698 16.4566 14.8264 18.4999 14.8264C20.5434 14.8264 22.1999 13.1698 22.1999 11.1265C22.1979 9.08391 20.5425 7.42848 18.4999 7.4265ZM18.4999 13.5931C17.1377 13.5931 16.0333 12.4887 16.0333 11.1265C16.0333 9.7641 17.1377 8.65974 18.4999 8.65974C19.8623 8.65974 20.9666 9.7641 20.9666 11.1265C20.9666 12.4887 19.8623 13.5931 18.4999 13.5931Z" fill="#95E1D3"/>
</g>
<defs>
<clipPath id="clip0">
<rect width="37" height="37" fill="white"/>
</clipPath>
</defs>
</svg>
