<svg width="22" height="26" viewBox="0 0 22 26" fill="none" xmlns="http://www.w3.org/2000/svg">
<path d="M11.3535 0C4.22754 0 0.437866 4.56646 0.437866 9.54568C0.437866 11.8549 1.72817 14.7345 3.79364 15.6478C4.10728 15.7892 4.27791 15.7291 4.34779 15.4382C4.40954 15.2172 4.68093 14.1528 4.81256 13.6506C4.85319 13.4897 4.83206 13.35 4.70206 13.1988C4.01628 12.4058 3.47188 10.9611 3.47188 9.60581C3.47188 6.13303 6.23288 2.761 10.931 2.761C14.9936 2.761 17.8359 5.40012 17.8359 9.17516C17.8359 13.441 15.5787 16.3921 12.6454 16.3921C11.022 16.3921 9.81291 15.1181 10.1964 13.5417C10.6596 11.6648 11.568 9.64643 11.568 8.29275C11.568 7.07882 10.8822 6.07452 9.4814 6.07452C7.8287 6.07452 6.48801 7.71097 6.48801 9.90807C6.48801 11.304 6.98203 12.2466 6.98203 12.2466C6.98203 12.2466 5.34721 18.8508 5.04332 20.0843C4.5298 22.1725 5.1132 25.5543 5.16358 25.8452C5.19445 26.006 5.37484 26.0564 5.47559 25.9248C5.63647 25.7135 7.61256 22.894 8.16671 20.8562C8.36822 20.1135 9.19538 17.1023 9.19538 17.1023C9.73978 18.0854 11.3112 18.9093 12.9851 18.9093C17.9643 18.9093 21.5622 14.533 21.5622 9.10203C21.5443 3.8953 17.0884 0 11.3535 0Z" fill="#F38181"/>
</svg>
