<svg width="26" height="22" viewBox="0 0 26 22" fill="none" xmlns="http://www.w3.org/2000/svg">
<path d="M26 2.93837C25.0331 3.3625 24.0029 3.64362 22.9287 3.78012C24.0337 3.12037 24.8771 2.08362 25.2736 0.834C24.2434 1.44825 23.1059 1.88213 21.8936 2.12425C20.9154 1.08263 19.5211 0.4375 18.0001 0.4375C15.0491 0.4375 12.6734 2.83275 12.6734 5.76912C12.6734 6.19163 12.7091 6.59787 12.7969 6.98462C8.3655 6.7685 4.44438 4.64463 1.81025 1.40925C1.35037 2.20713 1.08063 3.12038 1.08063 4.1035C1.08063 5.9495 2.03125 7.58587 3.44825 8.53325C2.59187 8.517 1.75175 8.26837 1.04 7.87675C1.04 7.893 1.04 7.91412 1.04 7.93525C1.04 10.5255 2.88762 12.677 5.3105 13.1726C4.87663 13.2913 4.40375 13.3481 3.913 13.3481C3.57175 13.3481 3.22725 13.3286 2.90387 13.2571C3.5945 15.368 5.55425 16.9199 7.8845 16.9702C6.071 18.3889 3.76838 19.2436 1.27562 19.2436C0.8385 19.2436 0.41925 19.2241 0 19.1705C2.36112 20.6931 5.15938 21.5625 8.177 21.5625C17.9855 21.5625 23.348 13.4375 23.348 6.39475C23.348 6.15912 23.3399 5.93163 23.3285 5.70575C24.3864 4.955 25.2752 4.01737 26 2.93837Z" fill="#F38181"/>
</svg>
