<svg width="37" height="37" viewBox="0 0 37 37" fill="none" xmlns="http://www.w3.org/2000/svg">
<path d="M34.7418 14.7661H28.2368V34.832H26.0702V19.4921H19.5652V34.832H17.3986V15.338H10.8936V34.832H8.76315V24.0232H2.25823V34.832H0V37H37V34.832H34.7418V14.7661ZM6.59402 26.1912V28.3591H4.42743V26.1912H6.59402ZM4.42743 34.832V30.5271H6.59402V34.832H4.42743ZM15.2294 17.506V19.674H13.0628V17.506H15.2294ZM13.0628 34.832V21.8419H15.2294V34.832H13.0628ZM23.901 21.6601V23.8281H21.7344V21.6601H23.901ZM21.7344 34.832V25.996H23.901V34.832H21.7344ZM32.5726 16.9341V19.102H30.406V16.9341H32.5726ZM30.406 34.832V21.27H32.5726V34.832H30.406Z" fill="#95E1D3"/>
<path d="M30.5108 0V2.16797H33.298L23.3087 12.1577L15.0332 3.88182L0.00750732 18.9081L1.54178 20.4406L15.0332 6.94877L23.3087 15.2246L34.8308 3.7021V6.49928H37V0L30.5108 0Z" fill="#95E1D3"/>
</svg>
