<svg width="37" height="37" viewBox="0 0 37 37" fill="none" xmlns="http://www.w3.org/2000/svg">
<g clip-path="url(#clip0)">
<path d="M27.1045 10.2567C26.9702 10.1223 26.7837 10.045 26.5937 10.045C26.4036 10.045 26.2172 10.1223 26.0828 10.2567C25.9484 10.3911 25.871 10.5769 25.871 10.7676C25.871 10.9577 25.9483 11.1441 26.0828 11.2786C26.2173 11.413 26.4036 11.4903 26.5937 11.4903C26.7837 11.4903 26.9702 11.413 27.1045 11.2786C27.2389 11.1441 27.3163 10.9577 27.3163 10.7676C27.3163 10.5776 27.239 10.3911 27.1045 10.2567Z" fill="#95E1D3"/>
<path d="M10.8398 20.3789H5.05859C4.65954 20.3789 4.33594 20.7025 4.33594 21.1016V26.8828C4.33594 27.282 4.65954 27.6055 5.05859 27.6055H10.8398C11.2389 27.6055 11.5625 27.282 11.5625 26.8828V21.1016C11.5625 20.7025 11.239 20.3789 10.8398 20.3789ZM10.1172 26.1602H5.78125V21.8242H10.1172V26.1602Z" fill="#95E1D3"/>
<path d="M36.5538 15.1586C36.2838 15.0466 35.9729 15.1086 35.7663 15.3152L28.4026 22.6789C28.4025 22.679 28.4023 22.6791 28.4022 22.6792C28.4021 22.6794 28.402 22.6794 28.4019 22.6796L19.8179 31.2636C19.8178 31.2637 19.8177 31.2638 19.8176 31.2639C19.8174 31.2641 19.8174 31.2641 19.8172 31.2643L15.3151 35.7664C15.1085 35.973 15.0467 36.2839 15.1585 36.5539C15.2703 36.824 15.5338 37 15.8261 37H36.2773C36.6763 37 36.9999 36.6765 36.9999 36.2773V15.8262C36.9999 15.534 36.8239 15.2704 36.5538 15.1586ZM35.5546 35.5547H17.5708L20.3286 32.797L21.0184 33.4868C21.1595 33.6279 21.3445 33.6985 21.5294 33.6985C21.7143 33.6985 21.8992 33.6279 22.0404 33.4868C22.3226 33.2046 22.3226 32.747 22.0404 32.4648L21.3505 31.7749L23.1901 29.9353L23.8799 30.6251C24.021 30.7662 24.206 30.8368 24.3909 30.8368C24.5758 30.8368 24.7607 30.7662 24.9019 30.6251C25.1841 30.3429 25.1841 29.8853 24.9019 29.6031L24.212 28.9133L26.0516 27.0737L26.7415 27.7635C26.8826 27.9047 27.0675 27.9752 27.2525 27.9752C27.4374 27.9752 27.6223 27.9047 27.7634 27.7635C28.0456 27.4813 28.0456 27.0237 27.7634 26.7415L27.0736 26.0516L28.9131 24.2121L29.603 24.902C29.7441 25.0431 29.929 25.1136 30.114 25.1136C30.2989 25.1136 30.4838 25.0431 30.6249 24.902C30.9071 24.6198 30.9071 24.1622 30.6249 23.8799L29.9351 23.1901L31.7747 21.3505L32.4645 22.0402C32.6056 22.1814 32.7905 22.2519 32.9755 22.2519C33.1604 22.2519 33.3453 22.1813 33.4864 22.0402C33.7686 21.7581 33.7686 21.3005 33.4864 21.0183L32.7966 20.3284L35.5546 17.5708V35.5547Z" fill="#95E1D3"/>
<path d="M32.9405 23.8818C32.6705 23.7698 32.3596 23.8318 32.153 24.0384L24.0384 32.1531C23.8318 32.3598 23.7698 32.6706 23.8817 32.9406C23.9936 33.2107 24.2571 33.3867 24.5494 33.3867H32.664C33.063 33.3867 33.3866 33.0632 33.3866 32.6641V24.5494C33.3866 24.2572 33.2106 23.9937 32.9405 23.8818ZM31.9413 31.9414H26.2941L31.9413 26.2941V31.9414Z" fill="#95E1D3"/>
<path d="M33.4634 10.7866C33.2645 10.5878 32.9683 10.5223 32.7039 10.6191L27.7695 12.4261C27.6709 12.4622 27.5813 12.5194 27.507 12.5936L26.1196 13.9811L17.0599 4.92136C16.9244 4.78586 16.7406 4.7097 16.5489 4.7097C16.3573 4.7097 16.1734 4.78586 16.0379 4.92136L5.13287 15.8264H2.4675L16.5489 1.74493L24.2762 9.47221C24.5585 9.75441 25.0159 9.75441 25.2983 9.47221C25.5805 9.19001 25.5805 8.73243 25.2983 8.45016L17.06 0.211892C16.7777 -0.0703051 16.3203 -0.0703051 16.0379 0.211892L0.211807 16.038C0.00520045 16.2447 -0.0566588 16.5555 0.0551359 16.8256C0.167003 17.0957 0.430483 17.2718 0.722797 17.2718H1.44545V36.2776C1.44545 36.6767 1.76906 37.0002 2.16811 37.0002H13.6573C14.0564 37.0002 14.38 36.6767 14.38 36.2776C14.38 35.8785 14.0564 35.5549 13.6573 35.5549H2.89076V17.2718H5.43219C5.62384 17.2718 5.80761 17.1956 5.94318 17.0601L16.5489 6.45433L25.0975 15.003L14.381 25.7196V19.2229H19.4396C19.8386 19.2229 20.1622 18.8994 20.1622 18.5003C20.1622 18.1011 19.8386 17.7776 19.4396 17.7776H13.6583C13.2593 17.7776 12.9357 18.1011 12.9357 18.5003V26.8831C12.9357 26.9674 12.9508 27.0479 12.9774 27.1231L12.3299 27.7706C11.186 28.9145 11.186 30.7759 12.3299 31.9199C12.902 32.492 13.6532 32.778 14.4046 32.7779C15.1559 32.7779 15.9074 32.4919 16.4793 31.92L22.5736 25.8257C22.8558 25.5435 22.8558 25.0859 22.5736 24.8037C22.2914 24.5215 21.8339 24.5215 21.5515 24.8037L16.9343 29.4209L14.829 27.3156L28.0324 14.1122L30.1377 16.2175L25.0925 21.2628C24.8103 21.545 24.8103 22.0025 25.0925 22.2847C25.3748 22.5669 25.8322 22.5669 26.1146 22.2847L31.6563 16.743C31.7305 16.6687 31.7878 16.5791 31.8238 16.4805L33.6309 11.5462C33.7277 11.282 33.6623 10.9856 33.4634 10.7866ZM15.9124 30.4428L15.4573 30.8979C15.1761 31.1791 14.8024 31.334 14.4047 31.334C14.007 31.334 13.6332 31.1791 13.3521 30.8979C13.0708 30.6167 12.916 30.2429 12.916 29.8453C12.916 29.4477 13.0707 29.0738 13.352 28.7926L13.8071 28.3375L15.9124 30.4428ZM30.8637 14.8993L29.3506 13.3862L31.7381 12.5118L30.8637 14.8993Z" fill="#95E1D3"/>
<path d="M24.331 23.0455C24.1967 22.9111 24.0102 22.8338 23.8202 22.8338C23.6301 22.8338 23.4437 22.9111 23.3092 23.0455C23.1748 23.1807 23.0975 23.3664 23.0975 23.5565C23.0975 23.7472 23.1748 23.933 23.3092 24.0681C23.4437 24.2025 23.6294 24.2791 23.8202 24.2791C24.0102 24.2791 24.1967 24.2025 24.331 24.0681C24.4654 23.933 24.5428 23.7465 24.5428 23.5565C24.5428 23.3664 24.4655 23.1807 24.331 23.0455Z" fill="#95E1D3"/>
<path d="M16.5488 10.9122C15.0346 10.9122 13.8027 12.1441 13.8027 13.6582C13.8027 15.1724 15.0346 16.4043 16.5488 16.4043C18.063 16.4043 19.2949 15.1724 19.2949 13.6582C19.2949 12.1441 18.063 10.9122 16.5488 10.9122ZM16.5488 14.959C15.8316 14.959 15.248 14.3756 15.248 13.6582C15.248 12.941 15.8316 12.3575 16.5488 12.3575C17.266 12.3575 17.8496 12.941 17.8496 13.6582C17.8496 14.3755 17.266 14.959 16.5488 14.959Z" fill="#95E1D3"/>
</g>
<defs>
<clipPath id="clip0">
<rect width="37" height="37" fill="white"/>
</clipPath>
</defs>
</svg>
