<svg width="37" height="37" viewBox="0 0 37 37" fill="none" xmlns="http://www.w3.org/2000/svg">
<path d="M5.3195 26.524C5.1869 26.524 5.05972 26.4713 4.96595 26.3776C4.87218 26.2838 4.8195 26.1566 4.8195 26.024V7.6335C4.84197 6.4115 5.34507 5.24757 6.21977 4.39392C7.09447 3.54028 8.27032 3.0657 9.49251 3.073H30.8225C30.9551 3.073 31.0823 3.12568 31.1761 3.21945C31.2698 3.31322 31.3225 3.4404 31.3225 3.573C31.3225 3.70561 31.2698 3.83279 31.1761 3.92656C31.0823 4.02033 30.9551 4.073 30.8225 4.073H9.49251C8.53369 4.06675 7.61091 4.43804 6.92362 5.10662C6.23632 5.7752 5.83971 6.68738 5.8195 7.646V26.024C5.8195 26.1566 5.76683 26.2838 5.67306 26.3776C5.57929 26.4713 5.45211 26.524 5.3195 26.524Z" fill="#95E1D3"/>
<path d="M29.771 12.423H26.65C26.5174 12.423 26.3902 12.3703 26.2965 12.2766C26.2027 12.1828 26.15 12.0556 26.15 11.923C26.15 11.7904 26.2027 11.6632 26.2965 11.5695C26.3902 11.4757 26.5174 11.423 26.65 11.423H28.69C28.4981 11.0566 28.3855 10.6538 28.3597 10.241C28.3339 9.82816 28.3953 9.41451 28.54 9.02701H26.65C26.5174 9.02701 26.3902 8.97433 26.2965 8.88056C26.2027 8.78679 26.15 8.65962 26.15 8.52701C26.15 8.3944 26.2027 8.26722 26.2965 8.17345C26.3902 8.07969 26.5174 8.02701 26.65 8.02701H29.331C29.4214 8.02699 29.5101 8.05147 29.5876 8.09784C29.6652 8.14421 29.7287 8.21073 29.7715 8.29033C29.8143 8.36993 29.8347 8.45964 29.8306 8.54992C29.8264 8.64019 29.7979 8.72765 29.748 8.80301C29.641 8.96701 28.7345 10.4505 30.084 11.533C30.1648 11.5978 30.2234 11.6861 30.2519 11.7857C30.2803 11.8852 30.2772 11.9912 30.2428 12.0889C30.2084 12.1866 30.1446 12.2712 30.0601 12.331C29.9756 12.3909 29.8746 12.423 29.771 12.423Z" fill="#95E1D3"/>
<path d="M26.65 30.32C26.5174 30.32 26.3902 30.2673 26.2965 30.1736C26.2027 30.0798 26.15 29.9526 26.15 29.82V7.6335C26.15 7.50089 26.2027 7.37371 26.2965 7.27995C26.3902 7.18618 26.5174 7.1335 26.65 7.1335C26.7826 7.1335 26.9098 7.18618 27.0036 7.27995C27.0974 7.37371 27.15 7.50089 27.15 7.6335V29.82C27.15 29.9526 27.0974 30.0798 27.0036 30.1736C26.9098 30.2673 26.7826 30.32 26.65 30.32Z" fill="#95E1D3"/>
<path d="M4.29701 33.927C3.47488 33.9269 2.67917 33.6367 2.05001 33.1075C1.95001 33.0215 1.85351 32.9355 1.76301 32.845C1.20101 32.2841 0.80463 31.579 0.617471 30.8073C0.430312 30.0357 0.459628 29.2273 0.702194 28.4713C0.94476 27.7152 1.39118 27.0407 1.99233 26.5219C2.59348 26.0032 3.32607 25.6603 4.10951 25.531C4.13627 25.5264 4.16336 25.5241 4.19051 25.524H23.2645C23.3902 25.5238 23.5113 25.571 23.6038 25.6561C23.6963 25.7413 23.7533 25.8581 23.7635 25.9834C23.7737 26.1086 23.7364 26.2332 23.6589 26.3321C23.5815 26.4311 23.4696 26.4973 23.3455 26.5175C22.744 26.6174 22.1817 26.8812 21.7204 27.2799C21.2591 27.6785 20.9166 28.1967 20.7306 28.7773C20.5445 29.358 20.5222 29.9787 20.666 30.5712C20.8097 31.1637 21.1141 31.7052 21.5455 32.136C21.616 32.207 21.6895 32.2735 21.765 32.336C22.196 32.6992 22.7367 32.9067 23.3 32.925H23.361H23.393C23.7842 32.9199 24.1696 32.8298 24.5225 32.661C25.008 32.4395 25.4195 32.0831 25.7081 31.6343C25.9966 31.1854 26.15 30.6631 26.15 30.1295C26.15 29.9969 26.2027 29.8697 26.2965 29.7759C26.3902 29.6822 26.5174 29.6295 26.65 29.6295C26.7826 29.6295 26.9098 29.6822 27.0036 29.7759C27.0973 29.8697 27.15 29.9969 27.15 30.1295C27.1514 30.8531 26.9448 31.5618 26.5548 32.1713C26.1647 32.7808 25.6077 33.2652 24.95 33.567C24.4714 33.7938 23.9496 33.9147 23.42 33.9215C23.4011 33.9237 23.3821 33.9249 23.363 33.925H4.34401C4.32851 33.9265 4.31301 33.927 4.29701 33.927ZM4.23251 26.524C3.63531 26.6306 3.07877 26.8989 2.62343 27.2998C2.16809 27.7006 1.83138 28.2187 1.64992 28.7975C1.46846 29.3764 1.44919 29.9939 1.59423 30.583C1.73926 31.1721 2.04303 31.7101 2.47251 32.1385C2.54351 32.2095 2.61951 32.2775 2.69501 32.3415C3.13256 32.7089 3.68276 32.9154 4.25401 32.9265H4.29701H20.921C20.893 32.8995 20.865 32.8725 20.8375 32.845C20.0288 32.0352 19.5743 30.9376 19.5737 29.7931C19.5732 28.6486 20.0266 27.5506 20.8345 26.74C20.909 26.6655 20.9845 26.594 21.0645 26.5255L4.23251 26.524Z" fill="#95E1D3"/>
<path d="M30.8225 12.423H29.9C29.7674 12.423 29.6402 12.3703 29.5465 12.2766C29.4527 12.1828 29.4 12.0556 29.4 11.923C29.4 11.7904 29.4527 11.6632 29.5465 11.5694C29.6402 11.4757 29.7674 11.423 29.9 11.423H30.8215C31.5441 11.4234 32.2508 11.2108 32.8532 10.8117C33.4556 10.4127 33.927 9.84486 34.2084 9.17933C34.4899 8.5138 34.5688 7.78007 34.4355 7.06988C34.3022 6.3597 33.9624 5.70458 33.4588 5.18645C32.9551 4.66831 32.3099 4.31016 31.6038 4.15676C30.8976 4.00337 30.162 4.06154 29.4887 4.32401C28.8155 4.58648 28.2346 5.0416 27.8186 5.63246C27.4026 6.22332 27.1701 6.92369 27.15 7.646C27.1493 7.71191 27.1354 7.77701 27.1092 7.83745C27.0829 7.8979 27.0447 7.95246 26.997 7.99791C26.9493 8.04336 26.8929 8.07878 26.8312 8.10207C26.7696 8.12536 26.7039 8.13604 26.638 8.1335C26.5724 8.13188 26.5076 8.11733 26.4476 8.0907C26.3876 8.06406 26.3334 8.02585 26.2881 7.97826C26.2428 7.93067 26.2074 7.87462 26.1838 7.81332C26.1602 7.75202 26.1489 7.68667 26.1505 7.621C26.1749 6.7017 26.4698 5.81 26.9984 5.05745C27.5269 4.3049 28.2657 3.72491 29.1222 3.39004C29.9787 3.05516 30.9149 2.98028 31.8137 3.17475C32.7125 3.36922 33.5341 3.82441 34.1755 4.48337C34.817 5.14234 35.2499 5.97582 35.4201 6.87956C35.5903 7.78329 35.4903 8.71715 35.1325 9.56431C34.7746 10.4115 34.175 11.1343 33.4085 11.6424C32.642 12.1506 31.7427 12.4214 30.823 12.421L30.8225 12.423Z" fill="#95E1D3"/>
<path d="M23.768 8.4165H8.73101C8.5984 8.4165 8.47122 8.36383 8.37746 8.27006C8.28369 8.17629 8.23101 8.04911 8.23101 7.9165C8.23101 7.7839 8.28369 7.65672 8.37746 7.56295C8.47122 7.46918 8.5984 7.4165 8.73101 7.4165H23.768C23.9006 7.4165 24.0278 7.46918 24.1216 7.56295C24.2153 7.65672 24.268 7.7839 24.268 7.9165C24.268 8.04911 24.2153 8.17629 24.1216 8.27006C24.0278 8.36383 23.9006 8.4165 23.768 8.4165Z" fill="#95E1D3"/>
<path d="M23.768 12.9295H19.75C19.6174 12.9295 19.4902 12.8768 19.3965 12.7831C19.3027 12.6893 19.25 12.5621 19.25 12.4295C19.25 12.2969 19.3027 12.1697 19.3965 12.076C19.4902 11.9822 19.6174 11.9295 19.75 11.9295H23.768C23.9006 11.9295 24.0278 11.9822 24.1216 12.076C24.2153 12.1697 24.268 12.2969 24.268 12.4295C24.268 12.5621 24.2153 12.6893 24.1216 12.7831C24.0278 12.8768 23.9006 12.9295 23.768 12.9295Z" fill="#95E1D3"/>
<path d="M9.87501 12.9295H8.73101C8.5984 12.9295 8.47123 12.8768 8.37746 12.7831C8.28369 12.6893 8.23101 12.5621 8.23101 12.4295C8.23101 12.2969 8.28369 12.1697 8.37746 12.076C8.47123 11.9822 8.5984 11.9295 8.73101 11.9295H9.87501C10.0076 11.9295 10.1348 11.9822 10.2286 12.076C10.3223 12.1697 10.375 12.2969 10.375 12.4295C10.375 12.5621 10.3223 12.6893 10.2286 12.7831C10.1348 12.8768 10.0076 12.9295 9.87501 12.9295Z" fill="#95E1D3"/>
<path d="M23.768 17.442H19.9585C19.8259 17.442 19.6987 17.3893 19.605 17.2956C19.5112 17.2018 19.4585 17.0746 19.4585 16.942C19.4585 16.8094 19.5112 16.6822 19.605 16.5884C19.6987 16.4947 19.8259 16.442 19.9585 16.442H23.768C23.9006 16.442 24.0278 16.4947 24.1216 16.5884C24.2154 16.6822 24.268 16.8094 24.268 16.942C24.268 17.0746 24.2154 17.2018 24.1216 17.2956C24.0278 17.3893 23.9006 17.442 23.768 17.442Z" fill="#95E1D3"/>
<path d="M9.30301 17.442H8.73101C8.5984 17.442 8.47123 17.3893 8.37746 17.2956C8.28369 17.2018 8.23101 17.0746 8.23101 16.942C8.23101 16.8094 8.28369 16.6822 8.37746 16.5884C8.47123 16.4947 8.5984 16.442 8.73101 16.442H9.30301C9.43562 16.442 9.5628 16.4947 9.65657 16.5884C9.75034 16.6822 9.80302 16.8094 9.80302 16.942C9.80302 17.0746 9.75034 17.2018 9.65657 17.2956C9.5628 17.3893 9.43562 17.442 9.30301 17.442Z" fill="#95E1D3"/>
<path d="M23.768 21.955H23.229C23.0964 21.955 22.9692 21.9023 22.8755 21.8086C22.7817 21.7148 22.729 21.5876 22.729 21.455C22.729 21.3224 22.7817 21.1952 22.8755 21.1014C22.9692 21.0077 23.0964 20.955 23.229 20.955H23.768C23.9006 20.955 24.0278 21.0077 24.1216 21.1014C24.2153 21.1952 24.268 21.3224 24.268 21.455C24.268 21.5876 24.2153 21.7148 24.1216 21.8086C24.0278 21.9023 23.9006 21.955 23.768 21.955Z" fill="#95E1D3"/>
<path d="M15.479 21.955H8.72899C8.59638 21.955 8.4692 21.9023 8.37543 21.8086C8.28167 21.7148 8.22899 21.5876 8.22899 21.455C8.22899 21.3224 8.28167 21.1952 8.37543 21.1014C8.4692 21.0077 8.59638 20.955 8.72899 20.955H15.479C15.6116 20.955 15.7388 21.0077 15.8325 21.1014C15.9263 21.1952 15.979 21.3224 15.979 21.455C15.979 21.5876 15.9263 21.7148 15.8325 21.8086C15.7388 21.9023 15.6116 21.955 15.479 21.955Z" fill="#95E1D3"/>
<path d="M14.473 19.95C13.7898 19.95 13.1172 19.7815 12.5147 19.4595C11.9122 19.1374 11.3984 18.6717 11.0188 18.1037C10.6393 17.5356 10.4057 16.8827 10.3388 16.2028C10.2719 15.5229 10.3737 14.837 10.6353 14.2059C10.8968 13.5747 11.3099 13.0178 11.8381 12.5845C12.3663 12.1512 12.9932 11.8548 13.6633 11.7217C14.3334 11.5885 15.0259 11.6227 15.6797 11.8212C16.3334 12.0196 16.9281 12.3763 17.411 12.8595C17.9922 13.4403 18.388 14.1805 18.5484 14.9864C18.7088 15.7923 18.6265 16.6277 18.312 17.3868C17.9974 18.1459 17.4648 18.7946 16.7814 19.2509C16.098 19.7071 15.2947 19.9504 14.473 19.95ZM14.473 12.6425C13.7431 12.6425 13.0358 12.8957 12.4715 13.3587C11.9073 13.8218 11.5211 14.4662 11.3788 15.1821C11.2364 15.898 11.3467 16.6412 11.6908 17.2849C12.0349 17.9286 12.5915 18.4331 13.2659 18.7124C13.9403 18.9917 14.6906 19.0285 15.3891 18.8166C16.0876 18.6047 16.691 18.1571 17.0965 17.5502C17.502 16.9433 17.6845 16.2145 17.613 15.4881C17.5414 14.7617 17.2202 14.0826 16.704 13.5665C16.4118 13.2724 16.0642 13.0391 15.6812 12.8802C15.2983 12.7214 14.8876 12.6401 14.473 12.641V12.6425Z" fill="#95E1D3"/>
<path d="M13.4915 16.295C13.1639 16.2951 12.8463 16.1816 12.5929 15.9738C12.3396 15.766 12.1662 15.4767 12.1022 15.1554C12.0383 14.834 12.0877 14.5004 12.2422 14.2114C12.3967 13.9225 12.6466 13.696 12.9494 13.5707C13.2521 13.4453 13.5889 13.4289 13.9025 13.5241C14.216 13.6193 14.4868 13.8203 14.6687 14.0929C14.8506 14.3654 14.9324 14.6926 14.9001 15.0186C14.8678 15.3447 14.7234 15.6495 14.4915 15.881C14.3602 16.0123 14.2043 16.1165 14.0327 16.1875C13.8611 16.2585 13.6772 16.2951 13.4915 16.295ZM13.4915 14.4625C13.395 14.4624 13.3015 14.4959 13.2269 14.557C13.1523 14.6182 13.1012 14.7034 13.0823 14.798C13.0635 14.8927 13.078 14.9909 13.1235 15.076C13.169 15.1611 13.2426 15.2278 13.3317 15.2647C13.4208 15.3017 13.52 15.3065 13.6124 15.2785C13.7047 15.2505 13.7845 15.1913 13.8381 15.1111C13.8917 15.0309 13.9158 14.9345 13.9063 14.8385C13.8968 14.7425 13.8543 14.6527 13.786 14.5845C13.7474 14.5457 13.7015 14.515 13.651 14.494C13.6004 14.4731 13.5462 14.4624 13.4915 14.4625Z" fill="#95E1D3"/>
<path d="M19.953 23.503C19.8204 23.503 19.6932 23.4503 19.5995 23.3565L15.7065 19.4635C15.6587 19.4174 15.6206 19.3622 15.5944 19.3012C15.5682 19.2402 15.5544 19.1746 15.5539 19.1082C15.5533 19.0418 15.5659 18.976 15.5911 18.9145C15.6162 18.8531 15.6533 18.7973 15.7003 18.7503C15.7472 18.7034 15.8031 18.6662 15.8645 18.6411C15.926 18.6159 15.9918 18.6033 16.0582 18.6039C16.1246 18.6045 16.1902 18.6182 16.2512 18.6445C16.3122 18.6707 16.3674 18.7087 16.4135 18.7565L20.15 22.491L21.114 22.436L21.17 21.4705L21.089 21.3895L20.271 21.2965C20.1586 21.2838 20.0538 21.2332 19.9738 21.1532C19.8937 21.0732 19.8432 20.9684 19.8305 20.856L19.7625 20.2605L19.168 20.193C19.0555 20.1804 18.9506 20.1299 18.8704 20.0499C18.7903 19.9699 18.7398 19.865 18.727 19.7525L18.634 18.9345L17.434 17.7345C17.3429 17.6402 17.2925 17.5139 17.2937 17.3828C17.2948 17.2517 17.3474 17.1263 17.4401 17.0336C17.5328 16.9409 17.6582 16.8883 17.7893 16.8872C17.9204 16.886 18.0467 16.9364 18.141 17.0275L19.4625 18.35C19.5426 18.4298 19.5931 18.5346 19.6055 18.647L19.6735 19.243L20.2685 19.31C20.3809 19.3227 20.4857 19.3733 20.5657 19.4533C20.6457 19.5333 20.6962 19.6381 20.709 19.7505L20.777 20.347L21.374 20.415C21.4863 20.4277 21.591 20.4781 21.671 20.558L22.034 20.9215C22.0838 20.9714 22.1226 21.0313 22.1477 21.0972C22.1727 21.1631 22.1836 21.2336 22.1795 21.304L22.0845 22.9375C22.0773 23.0599 22.0254 23.1754 21.9387 23.2621C21.852 23.3487 21.7364 23.4005 21.614 23.4075L19.9815 23.5015L19.953 23.503Z" fill="#95E1D3"/>
</svg>
